Coordinates
version=1
nRows=16
nColumns=22
inDegrees=yes

Units are S.I. units (second, meters, Newtons, ...)
If the header above contains a line with 'inDegrees', this indicates whether rotational values are in degrees (yes) or radians (no).

endheader
time	pelvis_tilt	pelvis_list	pelvis_rotation	pelvis_tx	pelvis_ty	pelvis_tz	hip_flexion_r	hip_adduction_r	hip_rotation_r	knee_angle_r	ankle_angle_r	subtalar_angle_r	hip_flexion_l	hip_adduction_l	hip_rotation_l	knee_angle_l	ankle_angle_l	subtalar_angle_l	lumbar_extension	lumbar_bending	lumbar_rotation
      3.31000000	     -5.28442704	     -4.44774235	      4.74886025	     -0.80415929	      0.97000495	     -0.23626532	      6.49161109	      6.15442904	     -8.14796401	    -17.57016955	     14.15322124	     -0.54476200	     24.20487422	     -2.81581328	      6.99501055	    -27.78888213	     12.91464884	     -2.14302145	     -1.04083834	      4.42353267	     -4.20815683
      3.32000000	     -5.15582844	     -4.50710949	      4.69664739	     -0.80643412	      0.97040736	     -0.23609123	      6.47342605	      6.23949680	     -8.06004742	    -17.50556243	     13.99029452	     -0.59965575	     23.80941057	     -2.88831205	      7.07234100	    -28.74749351	     13.16739428	     -2.00799024	     -1.08871388	      4.46856742	     -4.23170405
      3.33000000	     -5.04726602	     -4.57860575	      4.63639048	     -0.80857668	      0.97072095	     -0.23593766	      6.48545636	      6.32886340	     -8.00275493	    -17.47448012	     13.89107884	     -0.62696036	     23.40413042	     -2.98720199	      7.10608567	    -29.64869628	     13.43590499	     -1.98561544	     -1.10339742	      4.52184476	     -4.21592334
      3.34000000	     -4.94045016	     -4.66463092	      4.58789803	     -0.81059060	      0.97100896	     -0.23582391	      6.48518327	      6.43411605	     -7.93724201	    -17.43046735	     13.77014200	     -0.65656462	     22.96224432	     -3.10837589	      7.12733657	    -30.45886168	     13.67524839	     -1.96847262	     -1.10617135	      4.59064404	     -4.23113887
      3.35000000	     -4.84257359	     -4.75537816	      4.55279128	     -0.81249401	      0.97125956	     -0.23575486	      6.49104250	      6.54013452	     -7.88459177	    -17.39329043	     13.65527111	     -0.68717577	     22.48392540	     -3.23663860	      7.15551573	    -31.15028859	     13.89215915	     -1.96051483	     -1.09222940	      4.66109884	     -4.26927611
      3.36000000	     -4.76567044	     -4.84275975	      4.53551687	     -0.81430340	      0.97146028	     -0.23576139	      6.51943856	      6.63264000	     -7.86135573	    -17.36911319	     13.55973703	     -0.70856644	     21.97655222	     -3.35440002	      7.21060717	    -31.69640833	     14.08969206	     -1.96556612	     -1.04872336	      4.72699402	     -4.32178757
      3.37000000	     -4.70191684	     -4.92682224	      4.54100942	     -0.81603696	      0.97163159	     -0.23584233	      6.56156466	      6.71389706	     -7.85906415	    -17.35364380	     13.46651351	     -0.72332498	     21.42750293	     -3.46048200	      7.30417471	    -32.06954939	     14.27040558	     -1.96880519	     -0.98817054	      4.78752273	     -4.41524482
      3.38000000	     -4.66916707	     -4.99924322	      4.56549172	     -0.81769129	      0.97176020	     -0.23599671	      6.63627887	      6.77194892	     -7.89275512	    -17.34855641	     13.38718299	     -0.72968386	     20.84279635	     -3.54622455	      7.43110517	    -32.23267947	     14.45269377	     -1.96291228	     -0.88979017	      4.83264904	     -4.54088182
      3.39000000	     -4.65029661	     -5.06230663	      4.61911735	     -0.81931405	      0.97186458	     -0.23621359	      6.72404912	      6.81367484	     -7.94869203	    -17.34415199	     13.30864830	     -0.73052519	     20.22223546	     -3.61216621	      7.60819155	    -32.19846467	     14.62989013	     -1.93295741	     -0.78095978	      4.86086793	     -4.69523002
      3.40000000	     -4.65014538	     -5.12033052	      4.69469492	     -0.82089190	      0.97194617	     -0.23649394	      6.83059088	      6.84264006	     -8.02608758	    -17.34414700	     13.24062661	     -0.72800964	     19.56707550	     -3.67099772	      7.80695409	    -31.95078695	     14.79397666	     -1.86875055	     -0.65426024	      4.88237677	     -4.87983028
      3.41000000	     -4.69281520	     -5.17107994	      4.79157269	     -0.82242452	      0.97197171	     -0.23679930	      6.97440488	      6.85773981	     -8.12923419	    -17.33386709	     13.16511316	     -0.72162079	     18.91496939	     -3.72878138	      7.99733142	    -31.50464620	     14.96728036	     -1.79513669	     -0.48198522	      4.88387696	     -5.10744442
      3.42000000	     -4.73795031	     -5.22708986	      4.91959797	     -0.82392686	      0.97199737	     -0.23715457	      7.11872899	      6.87473989	     -8.25273978	    -17.32123471	     13.09228626	     -0.71630524	     18.23333339	     -3.80114455	      8.18577376	    -30.87249723	     15.09409176	     -1.69152159	     -0.31367385	      4.88754179	     -5.36767445
      3.43000000	     -4.77153798	     -5.29830665	      5.06098421	     -0.82536691	      0.97203089	     -0.23750843	      7.24654801	      6.90987245	     -8.39309317	    -17.30508622	     13.03930503	     -0.71701935	     17.51631408	     -3.91299228	      8.33786506	    -30.08053121	     15.16154849	     -1.55092662	     -0.16401334	      4.89970033	     -5.63702816
      3.44000000	     -4.82587504	     -5.37789956	      5.20772082	     -0.82673802	      0.97202832	     -0.23787989	      7.38523182	      6.95334067	     -8.52452008	    -17.27375959	     12.96507898	     -0.72328950	     16.81291943	     -4.05950115	      8.40586869	    -29.16113744	     15.19401085	     -1.42229522	      0.00709249	      4.91508783	     -5.92923354
      3.45000000	     -4.91126278	     -5.47077487	      5.35929597	     -0.82806272	      0.97197526	     -0.23828420	      7.55260614	      7.00767286	     -8.64590131	    -17.23562687	     12.86270984	     -0.73016601	     16.15072473	     -4.23868931	      8.38704550	    -28.14731925	     15.15774043	     -1.32771249	      0.20774258	      4.94046167	     -6.24370714
      3.46000000	     -4.92696634	     -5.58299296	      5.51148124	     -0.82923898	      0.97198396	     -0.23871044	      7.63069535	      7.08996575	     -8.78430831	    -17.18416723	     12.81798627	     -0.76354992	     15.41188444	     -4.46986369	      8.26432674	    -27.04118081	     15.08043624	     -1.22155522	      0.33214383	      4.99125136	     -6.52969707
